<?xml version="1.0" encoding="UTF-8"?>
<svg class="lacan-matheme-svg" xmlns="http://www.w3.org/2000/svg" xmlns:xlink="http://www.w3.org/1999/xlink" viewBox="0 0 207.658 194.922" version="1.1">
<defs>
<g>
<symbol overflow="visible" id="glyph0-0">
<path style="stroke:none;" d=""/>
</symbol>
<symbol overflow="visible" id="glyph0-1">
<path style="stroke:none;" d="M 1.734375 -2.90625 C 1.125 -3.046875 0.9375 -3.484375 0.9375 -3.78125 C 0.9375 -4.234375 1.359375 -4.671875 2 -4.671875 C 2.9375 -4.671875 3.34375 -4.046875 3.453125 -3.3125 C 3.46875 -3.21875 3.46875 -3.171875 3.578125 -3.171875 C 3.6875 -3.171875 3.6875 -3.21875 3.6875 -3.359375 L 3.6875 -4.71875 C 3.6875 -4.84375 3.6875 -4.90625 3.59375 -4.90625 C 3.546875 -4.90625 3.53125 -4.875 3.484375 -4.796875 L 3.21875 -4.40625 C 2.765625 -4.875 2.1875 -4.90625 2 -4.90625 C 1.109375 -4.90625 0.484375 -4.265625 0.484375 -3.5625 C 0.484375 -3.171875 0.65625 -2.875 0.90625 -2.640625 C 1.1875 -2.375 1.421875 -2.328125 2.171875 -2.15625 C 2.8125 -2.015625 2.953125 -1.984375 3.15625 -1.796875 C 3.3125 -1.625 3.453125 -1.40625 3.453125 -1.09375 C 3.453125 -0.609375 3.046875 -0.109375 2.390625 -0.109375 C 1.703125 -0.109375 0.78125 -0.375 0.71875 -1.421875 C 0.71875 -1.546875 0.71875 -1.578125 0.609375 -1.578125 C 0.484375 -1.578125 0.484375 -1.53125 0.484375 -1.390625 L 0.484375 -0.046875 C 0.484375 0.078125 0.484375 0.140625 0.578125 0.140625 C 0.640625 0.140625 0.65625 0.125 0.703125 0.0625 C 0.765625 -0.03125 0.90625 -0.25 0.953125 -0.34375 C 1.390625 0.046875 1.9375 0.140625 2.390625 0.140625 C 3.296875 0.140625 3.90625 -0.546875 3.90625 -1.296875 C 3.90625 -1.921875 3.46875 -2.515625 2.765625 -2.671875 Z M 1.734375 -2.90625 "/>
</symbol>
<symbol overflow="visible" id="glyph0-2">
<path style="stroke:none;" d="M 1.46875 -4.296875 C 1.46875 -4.5 1.296875 -4.703125 1.0625 -4.703125 C 0.859375 -4.703125 0.671875 -4.53125 0.671875 -4.296875 C 0.671875 -4.046875 0.875 -3.890625 1.0625 -3.890625 C 1.296875 -3.890625 1.46875 -4.0625 1.46875 -4.296875 Z M 0.40625 -3 L 0.40625 -2.75 C 0.84375 -2.75 0.90625 -2.703125 0.90625 -2.359375 L 0.90625 -0.546875 C 0.90625 -0.25 0.84375 -0.25 0.390625 -0.25 L 0.390625 0 C 0.40625 0 0.890625 -0.03125 1.171875 -0.03125 C 1.421875 -0.03125 1.671875 -0.015625 1.90625 0 L 1.90625 -0.25 C 1.5 -0.25 1.4375 -0.25 1.4375 -0.546875 L 1.4375 -3.078125 Z M 0.40625 -3 "/>
</symbol>
<symbol overflow="visible" id="glyph0-3">
<path style="stroke:none;" d="M 1 -1.234375 C 1.109375 -1.171875 1.359375 -1.03125 1.765625 -1.03125 C 2.484375 -1.03125 3 -1.5 3 -2.046875 C 3 -2.328125 2.875 -2.53125 2.703125 -2.71875 C 3.03125 -2.9375 3.296875 -2.953125 3.421875 -2.953125 C 3.390625 -2.921875 3.359375 -2.890625 3.359375 -2.78125 C 3.359375 -2.640625 3.453125 -2.5625 3.578125 -2.5625 C 3.671875 -2.5625 3.796875 -2.625 3.796875 -2.78125 C 3.796875 -2.953125 3.671875 -3.140625 3.390625 -3.140625 C 3.28125 -3.140625 2.90625 -3.125 2.578125 -2.828125 C 2.375 -2.96875 2.078125 -3.078125 1.765625 -3.078125 C 1.046875 -3.078125 0.53125 -2.59375 0.53125 -2.046875 C 0.53125 -1.78125 0.671875 -1.53125 0.859375 -1.34375 C 0.8125 -1.28125 0.65625 -1.046875 0.65625 -0.78125 C 0.65625 -0.6875 0.671875 -0.359375 0.953125 -0.15625 C 0.640625 -0.0625 0.265625 0.171875 0.265625 0.53125 C 0.265625 1.046875 1.03125 1.421875 1.984375 1.421875 C 2.859375 1.421875 3.6875 1.078125 3.6875 0.515625 C 3.6875 0.3125 3.609375 -0.0625 3.21875 -0.265625 C 2.8125 -0.484375 2.390625 -0.484375 1.71875 -0.484375 C 1.5625 -0.484375 1.3125 -0.484375 1.265625 -0.5 C 1.03125 -0.546875 0.90625 -0.75 0.90625 -0.953125 C 0.90625 -1.125 0.96875 -1.1875 1 -1.234375 Z M 1.765625 -1.234375 C 1.09375 -1.234375 1.09375 -1.90625 1.09375 -2.046875 C 1.09375 -2.15625 1.09375 -2.4375 1.21875 -2.625 C 1.328125 -2.734375 1.515625 -2.859375 1.765625 -2.859375 C 2.453125 -2.859375 2.453125 -2.1875 2.453125 -2.046875 C 2.453125 -1.9375 2.453125 -1.65625 2.3125 -1.484375 C 2.203125 -1.359375 2.015625 -1.234375 1.765625 -1.234375 Z M 1.765625 -0.015625 C 2.390625 -0.015625 3.265625 -0.015625 3.265625 0.53125 C 3.265625 0.90625 2.703125 1.21875 1.984375 1.21875 C 1.25 1.21875 0.703125 0.890625 0.703125 0.53125 C 0.703125 0.28125 0.921875 -0.015625 1.359375 -0.015625 Z M 1.765625 -0.015625 "/>
</symbol>
<symbol overflow="visible" id="glyph0-4">
<path style="stroke:none;" d="M 3.59375 -2.109375 C 3.59375 -2.71875 3.296875 -3.078125 2.546875 -3.078125 C 1.96875 -3.078125 1.609375 -2.765625 1.40625 -2.390625 L 1.40625 -3.078125 L 0.375 -3 L 0.375 -2.75 C 0.84375 -2.75 0.90625 -2.703125 0.90625 -2.359375 L 0.90625 -0.546875 C 0.90625 -0.25 0.828125 -0.25 0.375 -0.25 L 0.375 0 C 0.390625 0 0.875 -0.03125 1.171875 -0.03125 C 1.421875 -0.03125 1.90625 0 1.96875 0 L 1.96875 -0.25 C 1.515625 -0.25 1.453125 -0.25 1.453125 -0.546875 L 1.453125 -1.8125 C 1.453125 -2.53125 2.03125 -2.875 2.484375 -2.875 C 2.96875 -2.875 3.03125 -2.5 3.03125 -2.140625 L 3.03125 -0.546875 C 3.03125 -0.25 2.96875 -0.25 2.515625 -0.25 L 2.515625 0 C 2.53125 0 3.015625 -0.03125 3.3125 -0.03125 C 3.5625 -0.03125 4.046875 0 4.109375 0 L 4.109375 -0.25 C 3.65625 -0.25 3.59375 -0.25 3.59375 -0.546875 Z M 3.59375 -2.109375 "/>
</symbol>
<symbol overflow="visible" id="glyph0-5">
<path style="stroke:none;" d="M 2.71875 -3.03125 C 2.640625 -3.015625 2.609375 -3.015625 2.59375 -3.015625 C 2.578125 -3 2.5625 -3 2.46875 -3 L 1.359375 -3 L 1.359375 -3.765625 C 1.359375 -4.453125 2.078125 -4.703125 2.5625 -4.703125 C 2.796875 -4.703125 3.03125 -4.65625 3.21875 -4.515625 C 2.96875 -4.453125 2.9375 -4.265625 2.9375 -4.1875 C 2.9375 -3.96875 3.109375 -3.84375 3.28125 -3.84375 C 3.40625 -3.84375 3.625 -3.921875 3.625 -4.1875 C 3.625 -4.578125 3.234375 -4.90625 2.578125 -4.90625 C 1.859375 -4.90625 0.859375 -4.578125 0.859375 -3.765625 L 0.859375 -3 L 0.265625 -3 L 0.265625 -2.75 L 0.859375 -2.75 L 0.859375 -0.546875 C 0.859375 -0.25 0.796875 -0.25 0.34375 -0.25 L 0.34375 0 C 0.359375 0 0.84375 -0.03125 1.125 -0.03125 C 1.390625 -0.03125 1.640625 -0.015625 1.90625 0 L 1.90625 -0.25 C 1.453125 -0.25 1.390625 -0.25 1.390625 -0.546875 L 1.390625 -2.75 L 2.78125 -2.75 C 3.0625 -2.75 3.109375 -2.6875 3.109375 -2.375 L 3.109375 -0.546875 C 3.109375 -0.25 3.046875 -0.25 2.59375 -0.25 L 2.59375 0 C 2.609375 0 3.09375 -0.03125 3.375 -0.03125 C 3.640625 -0.03125 3.890625 -0.015625 4.15625 0 L 4.15625 -0.25 C 3.703125 -0.25 3.640625 -0.25 3.640625 -0.546875 L 3.640625 -3.09375 Z M 2.71875 -3.03125 "/>
</symbol>
<symbol overflow="visible" id="glyph0-6">
<path style="stroke:none;" d="M 3.0625 -1.59375 C 3.21875 -1.59375 3.265625 -1.59375 3.265625 -1.734375 C 3.265625 -2.359375 2.921875 -3.109375 1.875 -3.109375 C 0.96875 -3.109375 0.265625 -2.390625 0.265625 -1.53125 C 0.265625 -0.640625 1.046875 0.0625 1.96875 0.0625 C 2.90625 0.0625 3.265625 -0.6875 3.265625 -0.84375 C 3.265625 -0.859375 3.25 -0.9375 3.140625 -0.9375 C 3.046875 -0.9375 3.03125 -0.890625 3.015625 -0.828125 C 2.796875 -0.265625 2.265625 -0.15625 2.015625 -0.15625 C 1.6875 -0.15625 1.375 -0.296875 1.171875 -0.5625 C 0.90625 -0.890625 0.90625 -1.3125 0.90625 -1.59375 Z M 0.90625 -1.765625 C 0.984375 -2.75 1.609375 -2.90625 1.875 -2.90625 C 2.734375 -2.90625 2.765625 -1.9375 2.78125 -1.765625 Z M 0.90625 -1.765625 "/>
</symbol>
<symbol overflow="visible" id="glyph0-7">
<path style="stroke:none;" d="M 1.390625 -1.59375 C 1.390625 -2.171875 1.65625 -2.875 2.328125 -2.875 C 2.265625 -2.828125 2.203125 -2.734375 2.203125 -2.625 C 2.203125 -2.390625 2.390625 -2.3125 2.515625 -2.3125 C 2.6875 -2.3125 2.84375 -2.421875 2.84375 -2.625 C 2.84375 -2.859375 2.609375 -3.078125 2.28125 -3.078125 C 1.9375 -3.078125 1.546875 -2.859375 1.34375 -2.328125 L 1.34375 -3.078125 L 0.34375 -3 L 0.34375 -2.75 C 0.8125 -2.75 0.859375 -2.703125 0.859375 -2.359375 L 0.859375 -0.546875 C 0.859375 -0.25 0.796875 -0.25 0.34375 -0.25 L 0.34375 0 C 0.375 0 0.84375 -0.03125 1.140625 -0.03125 C 1.4375 -0.03125 1.734375 -0.015625 2.046875 0 L 2.046875 -0.25 L 1.90625 -0.25 C 1.390625 -0.25 1.390625 -0.328125 1.390625 -0.5625 Z M 1.390625 -1.59375 "/>
</symbol>
<symbol overflow="visible" id="glyph0-8">
<path style="stroke:none;" d="M 4.859375 -4.046875 C 4.953125 -4.265625 5.125 -4.5 5.65625 -4.515625 L 5.65625 -4.765625 C 5.453125 -4.734375 5.171875 -4.734375 4.96875 -4.734375 C 4.703125 -4.734375 4.1875 -4.765625 4.140625 -4.765625 L 4.140625 -4.515625 C 4.390625 -4.515625 4.625 -4.390625 4.625 -4.1875 C 4.625 -4.125 4.609375 -4.078125 4.578125 -4.03125 L 3.140625 -0.671875 L 1.640625 -4.203125 C 1.59375 -4.28125 1.59375 -4.296875 1.59375 -4.328125 C 1.59375 -4.515625 1.953125 -4.515625 2.140625 -4.515625 L 2.140625 -4.765625 C 1.796875 -4.75 1.359375 -4.734375 1.109375 -4.734375 C 0.765625 -4.734375 0.234375 -4.765625 0.21875 -4.765625 L 0.21875 -4.515625 L 0.328125 -4.515625 C 0.703125 -4.515625 0.828125 -4.46875 0.921875 -4.265625 L 2.734375 -0.015625 C 2.78125 0.09375 2.796875 0.140625 2.9375 0.140625 C 3 0.140625 3.078125 0.140625 3.140625 0 Z M 4.859375 -4.046875 "/>
</symbol>
<symbol overflow="visible" id="glyph0-9">
<path style="stroke:none;" d="M 3.6875 -1.484375 C 3.6875 -2.359375 2.9375 -3.109375 1.984375 -3.109375 C 1.015625 -3.109375 0.265625 -2.359375 0.265625 -1.484375 C 0.265625 -0.625 1.03125 0.0625 1.984375 0.0625 C 2.921875 0.0625 3.6875 -0.625 3.6875 -1.484375 Z M 1.984375 -0.15625 C 1.71875 -0.15625 1.34375 -0.234375 1.109375 -0.578125 C 0.921875 -0.859375 0.90625 -1.21875 0.90625 -1.546875 C 0.90625 -1.84375 0.90625 -2.265625 1.15625 -2.5625 C 1.328125 -2.765625 1.625 -2.90625 1.984375 -2.90625 C 2.390625 -2.90625 2.6875 -2.71875 2.84375 -2.5 C 3.03125 -2.234375 3.046875 -1.875 3.046875 -1.546875 C 3.046875 -1.21875 3.03125 -0.84375 2.828125 -0.5625 C 2.640625 -0.296875 2.328125 -0.15625 1.984375 -0.15625 Z M 1.984375 -0.15625 "/>
</symbol>
<symbol overflow="visible" id="glyph0-10">
<path style="stroke:none;" d="M 2.703125 -2.78125 C 2.578125 -2.71875 2.515625 -2.609375 2.515625 -2.46875 C 2.515625 -2.28125 2.640625 -2.140625 2.84375 -2.140625 C 3.03125 -2.140625 3.171875 -2.265625 3.171875 -2.484375 C 3.171875 -3.109375 2.203125 -3.109375 2.015625 -3.109375 C 0.96875 -3.109375 0.328125 -2.3125 0.328125 -1.5 C 0.328125 -0.625 1.0625 0.0625 1.984375 0.0625 C 3.015625 0.0625 3.265625 -0.75 3.265625 -0.84375 C 3.265625 -0.921875 3.171875 -0.921875 3.140625 -0.921875 C 3.046875 -0.921875 3.046875 -0.90625 3.015625 -0.796875 C 2.859375 -0.375 2.484375 -0.15625 2.0625 -0.15625 C 1.578125 -0.15625 0.953125 -0.515625 0.953125 -1.515625 C 0.953125 -2.390625 1.390625 -2.890625 2.03125 -2.890625 C 2.125 -2.890625 2.453125 -2.890625 2.703125 -2.78125 Z M 2.703125 -2.78125 "/>
</symbol>
<symbol overflow="visible" id="glyph0-11">
<path style="stroke:none;" d="M 1.765625 -4.1875 C 1.765625 -4.421875 1.765625 -4.515625 2.34375 -4.515625 L 2.515625 -4.515625 L 2.515625 -4.765625 C 2.46875 -4.765625 1.71875 -4.734375 1.4375 -4.734375 C 1.15625 -4.734375 0.390625 -4.765625 0.359375 -4.765625 L 0.359375 -4.515625 L 0.53125 -4.515625 C 1.109375 -4.515625 1.109375 -4.421875 1.109375 -4.1875 L 1.109375 -0.578125 C 1.109375 -0.328125 1.109375 -0.25 0.53125 -0.25 L 0.359375 -0.25 L 0.359375 0 C 0.40625 0 1.15625 -0.03125 1.4375 -0.03125 C 1.71875 -0.03125 2.484375 0 2.515625 0 L 2.515625 -0.25 L 2.34375 -0.25 C 1.765625 -0.25 1.765625 -0.328125 1.765625 -0.578125 Z M 1.765625 -4.1875 "/>
</symbol>
<symbol overflow="visible" id="glyph0-12">
<path style="stroke:none;" d="M 2.46875 -5.21875 C 1.15625 -4.296875 0.796875 -2.8125 0.796875 -1.75 C 0.796875 -0.765625 1.09375 0.765625 2.46875 1.734375 C 2.53125 1.734375 2.609375 1.734375 2.609375 1.65625 C 2.609375 1.609375 2.59375 1.59375 2.546875 1.546875 C 1.609375 0.703125 1.28125 -0.46875 1.28125 -1.734375 C 1.28125 -3.625 2 -4.546875 2.5625 -5.0625 C 2.59375 -5.09375 2.609375 -5.109375 2.609375 -5.140625 C 2.609375 -5.21875 2.53125 -5.21875 2.46875 -5.21875 Z M 2.46875 -5.21875 "/>
</symbol>
<symbol overflow="visible" id="glyph0-13">
<path style="stroke:none;" d="M 3.125 -4.8125 C 3.09375 -4.921875 3.0625 -4.96875 2.9375 -4.96875 C 2.796875 -4.96875 2.78125 -4.921875 2.734375 -4.8125 L 1.125 -0.734375 C 1.0625 -0.5625 0.9375 -0.25 0.3125 -0.25 L 0.3125 0 C 0.546875 -0.015625 0.796875 -0.03125 1.03125 -0.03125 C 1.3125 -0.03125 1.828125 0 1.875 0 L 1.875 -0.25 C 1.5625 -0.25 1.359375 -0.390625 1.359375 -0.578125 C 1.359375 -0.640625 1.375 -0.65625 1.40625 -0.71875 L 1.734375 -1.578125 L 3.71875 -1.578125 L 4.125 -0.5625 C 4.125 -0.53125 4.15625 -0.484375 4.15625 -0.453125 C 4.15625 -0.25 3.78125 -0.25 3.59375 -0.25 L 3.59375 0 C 3.9375 -0.015625 4.390625 -0.03125 4.625 -0.03125 C 4.953125 -0.03125 5.484375 0 5.546875 0 L 5.546875 -0.25 L 5.421875 -0.25 C 4.953125 -0.25 4.90625 -0.328125 4.828125 -0.515625 Z M 2.71875 -4.09375 L 3.609375 -1.828125 L 1.828125 -1.828125 Z M 2.71875 -4.09375 "/>
</symbol>
<symbol overflow="visible" id="glyph0-14">
<path style="stroke:none;" d="M 0.625 -5.21875 C 0.578125 -5.21875 0.5 -5.21875 0.5 -5.140625 C 0.5 -5.109375 0.515625 -5.09375 0.5625 -5.03125 C 1.15625 -4.484375 1.828125 -3.546875 1.828125 -1.75 C 1.828125 -0.296875 1.375 0.8125 0.625 1.484375 C 0.5 1.609375 0.5 1.609375 0.5 1.65625 C 0.5 1.6875 0.515625 1.734375 0.578125 1.734375 C 0.671875 1.734375 1.328125 1.28125 1.796875 0.40625 C 2.09375 -0.171875 2.296875 -0.921875 2.296875 -1.734375 C 2.296875 -2.71875 2 -4.25 0.625 -5.21875 Z M 0.625 -5.21875 "/>
</symbol>
<symbol overflow="visible" id="glyph0-15">
<path style="stroke:none;" d="M 2.640625 -2.921875 C 2.640625 -3.046875 2.640625 -3.109375 2.546875 -3.109375 C 2.515625 -3.109375 2.5 -3.109375 2.40625 -3.03125 C 2.390625 -3.015625 2.328125 -2.953125 2.28125 -2.921875 C 2.0625 -3.0625 1.8125 -3.109375 1.546875 -3.109375 C 0.546875 -3.109375 0.3125 -2.578125 0.3125 -2.234375 C 0.3125 -2.015625 0.40625 -1.828125 0.578125 -1.6875 C 0.84375 -1.46875 1.109375 -1.421875 1.546875 -1.34375 C 1.890625 -1.28125 2.453125 -1.1875 2.453125 -0.71875 C 2.453125 -0.453125 2.265625 -0.125 1.59375 -0.125 C 0.921875 -0.125 0.6875 -0.5625 0.5625 -1.03125 C 0.53125 -1.125 0.53125 -1.15625 0.4375 -1.15625 C 0.3125 -1.15625 0.3125 -1.109375 0.3125 -0.96875 L 0.3125 -0.109375 C 0.3125 0 0.3125 0.0625 0.40625 0.0625 C 0.46875 0.0625 0.609375 -0.078125 0.75 -0.234375 C 1.046875 0.0625 1.421875 0.0625 1.59375 0.0625 C 2.5 0.0625 2.84375 -0.421875 2.84375 -0.90625 C 2.84375 -1.171875 2.71875 -1.390625 2.53125 -1.546875 C 2.265625 -1.796875 1.953125 -1.859375 1.703125 -1.890625 C 1.15625 -2 0.703125 -2.078125 0.703125 -2.453125 C 0.703125 -2.671875 0.890625 -2.9375 1.546875 -2.9375 C 2.359375 -2.9375 2.390625 -2.375 2.40625 -2.171875 C 2.40625 -2.09375 2.5 -2.09375 2.515625 -2.09375 C 2.640625 -2.09375 2.640625 -2.140625 2.640625 -2.28125 Z M 2.640625 -2.921875 "/>
</symbol>
<symbol overflow="visible" id="glyph0-16">
<path style="stroke:none;" d="M 2.40625 -1.03125 C 2.40625 -0.40625 2.03125 -0.0625 1.640625 -0.0625 C 1.421875 -0.0625 1.046875 -0.140625 0.84375 -0.40625 C 1.109375 -0.421875 1.234375 -0.59375 1.234375 -0.796875 C 1.234375 -1.015625 1.078125 -1.171875 0.84375 -1.171875 C 0.640625 -1.171875 0.453125 -1.03125 0.453125 -0.78125 C 0.453125 -0.265625 0.984375 0.140625 1.671875 0.140625 C 2.3125 0.140625 2.90625 -0.234375 3.03125 -0.8125 C 3.046875 -0.90625 3.046875 -1.21875 3.046875 -1.421875 L 3.046875 -4 C 3.046875 -4.125 3.046875 -4.328125 3.0625 -4.359375 C 3.09375 -4.515625 3.25 -4.515625 3.578125 -4.515625 L 3.578125 -4.765625 C 3.546875 -4.765625 3.03125 -4.734375 2.703125 -4.734375 C 2.546875 -4.734375 1.609375 -4.75 1.484375 -4.765625 L 1.484375 -4.515625 L 1.734375 -4.515625 C 2.40625 -4.515625 2.40625 -4.421875 2.40625 -4.1875 Z M 2.40625 -1.03125 "/>
</symbol>
<symbol overflow="visible" id="glyph0-17">
<path style="stroke:none;" d="M 2.515625 -3 L 2.515625 -2.75 C 2.984375 -2.75 3.03125 -2.703125 3.03125 -2.359375 L 3.03125 -1.15625 C 3.03125 -0.546875 2.640625 -0.125 2.109375 -0.125 C 1.484375 -0.125 1.453125 -0.421875 1.453125 -0.78125 L 1.453125 -3.078125 L 0.375 -3 L 0.375 -2.75 C 0.90625 -2.75 0.90625 -2.71875 0.90625 -2.109375 L 0.90625 -1.0625 C 0.90625 -0.578125 0.90625 0.0625 2.0625 0.0625 C 2.21875 0.0625 2.71875 0.0625 3.0625 -0.515625 L 3.0625 0.0625 L 4.109375 0 L 4.109375 -0.25 C 3.640625 -0.25 3.59375 -0.296875 3.59375 -0.640625 L 3.59375 -3.078125 Z M 2.515625 -3 "/>
</symbol>
<symbol overflow="visible" id="glyph0-18">
<path style="stroke:none;" d="M 3.109375 -1.875 C 3.109375 -2.234375 3.109375 -2.5 2.78125 -2.765625 C 2.5 -3 2.171875 -3.109375 1.75 -3.109375 C 1.09375 -3.109375 0.625 -2.859375 0.625 -2.4375 C 0.625 -2.203125 0.78125 -2.09375 0.96875 -2.09375 C 1.15625 -2.09375 1.296875 -2.234375 1.296875 -2.421875 C 1.296875 -2.53125 1.234375 -2.6875 1.046875 -2.734375 C 1.296875 -2.90625 1.703125 -2.90625 1.734375 -2.90625 C 2.125 -2.90625 2.5625 -2.65625 2.5625 -2.0625 L 2.5625 -1.859375 C 2.171875 -1.84375 1.71875 -1.8125 1.203125 -1.625 C 0.578125 -1.40625 0.390625 -1.015625 0.390625 -0.703125 C 0.390625 -0.109375 1.109375 0.0625 1.609375 0.0625 C 2.15625 0.0625 2.484375 -0.25 2.640625 -0.515625 C 2.65625 -0.234375 2.84375 0.03125 3.171875 0.03125 C 3.1875 0.03125 3.859375 0.03125 3.859375 -0.625 L 3.859375 -1.015625 L 3.625 -1.015625 L 3.625 -0.640625 C 3.625 -0.5625 3.625 -0.234375 3.359375 -0.234375 C 3.109375 -0.234375 3.109375 -0.5625 3.109375 -0.640625 Z M 2.5625 -0.984375 C 2.5625 -0.3125 1.96875 -0.125 1.65625 -0.125 C 1.296875 -0.125 0.96875 -0.359375 0.96875 -0.703125 C 0.96875 -1.09375 1.296875 -1.625 2.5625 -1.671875 Z M 2.5625 -0.984375 "/>
</symbol>
<symbol overflow="visible" id="glyph0-19">
<path style="stroke:none;" d="M 5.1875 -4.71875 C 5.1875 -4.84375 5.1875 -4.90625 5.09375 -4.90625 C 5.0625 -4.90625 5.03125 -4.90625 4.96875 -4.8125 L 4.59375 -4.28125 C 4.3125 -4.578125 3.828125 -4.90625 3.15625 -4.90625 C 1.6875 -4.90625 0.484375 -3.765625 0.484375 -2.390625 C 0.484375 -0.96875 1.71875 0.140625 3.15625 0.140625 C 4.390625 0.140625 5.1875 -0.78125 5.1875 -1.625 C 5.1875 -1.703125 5.171875 -1.765625 5.0625 -1.765625 C 5.03125 -1.765625 4.953125 -1.765625 4.953125 -1.671875 C 4.890625 -0.546875 3.9375 -0.109375 3.25 -0.109375 C 2.515625 -0.109375 1.234375 -0.5625 1.234375 -2.375 C 1.234375 -4.265625 2.578125 -4.640625 3.234375 -4.640625 C 3.9375 -4.640625 4.75 -4.1875 4.9375 -2.984375 C 4.953125 -2.90625 5.015625 -2.90625 5.0625 -2.90625 C 5.1875 -2.90625 5.1875 -2.953125 5.1875 -3.09375 Z M 5.1875 -4.71875 "/>
</symbol>
<symbol overflow="visible" id="glyph0-20">
<path style="stroke:none;" d="M 1.40625 -2.75 L 2.484375 -2.75 L 2.484375 -3 L 1.40625 -3 L 1.40625 -4.28125 L 1.15625 -4.28125 C 1.15625 -3.65625 0.875 -2.96875 0.203125 -2.953125 L 0.203125 -2.75 L 0.84375 -2.75 L 0.84375 -0.875 C 0.84375 -0.09375 1.4375 0.0625 1.828125 0.0625 C 2.296875 0.0625 2.609375 -0.328125 2.609375 -0.875 L 2.609375 -1.265625 L 2.375 -1.265625 L 2.375 -0.890625 C 2.375 -0.40625 2.15625 -0.15625 1.875 -0.15625 C 1.40625 -0.15625 1.40625 -0.734375 1.40625 -0.859375 Z M 1.40625 -2.75 "/>
</symbol>
<symbol overflow="visible" id="glyph1-0">
<path style="stroke:none;" d=""/>
</symbol>
<symbol overflow="visible" id="glyph1-1">
<path style="stroke:none;" d="M 5.15625 -9.875 C 5.171875 -9.90625 5.1875 -9.921875 5.1875 -9.96875 C 5.1875 -10.078125 5.09375 -10.171875 4.984375 -10.171875 C 4.90625 -10.171875 4.828125 -10.125 4.8125 -10.046875 L -0.171875 -0.078125 C -0.1875 -0.0625 -0.203125 -0.03125 -0.203125 0 C -0.203125 0.109375 -0.109375 0.203125 0 0.203125 C 0.0625 0.203125 0.140625 0.15625 0.171875 0.078125 Z M 5.15625 -9.875 "/>
</symbol>
<symbol overflow="visible" id="glyph2-0">
<path style="stroke:none;" d=""/>
</symbol>
<symbol overflow="visible" id="glyph2-1">
<path style="stroke:none;" d="M 3.03125 -0.5625 C 2.984375 -0.421875 2.921875 -0.1875 2.921875 -0.15625 C 2.921875 0 3.046875 0.0625 3.15625 0.0625 C 3.296875 0.0625 3.40625 -0.015625 3.4375 -0.078125 C 3.46875 -0.140625 3.53125 -0.375 3.5625 -0.515625 C 3.59375 -0.640625 3.671875 -0.96875 3.71875 -1.140625 C 3.75 -1.296875 3.796875 -1.453125 3.828125 -1.609375 C 3.90625 -1.90625 3.90625 -1.921875 4.046875 -2.140625 C 4.265625 -2.484375 4.625 -2.875 5.15625 -2.875 C 5.546875 -2.875 5.578125 -2.5625 5.578125 -2.390625 C 5.578125 -1.96875 5.28125 -1.203125 5.15625 -0.90625 C 5.09375 -0.703125 5.0625 -0.640625 5.0625 -0.53125 C 5.0625 -0.15625 5.359375 0.0625 5.71875 0.0625 C 6.421875 0.0625 6.71875 -0.890625 6.71875 -1 C 6.71875 -1.09375 6.640625 -1.09375 6.609375 -1.09375 C 6.515625 -1.09375 6.515625 -1.046875 6.484375 -0.96875 C 6.328125 -0.40625 6.015625 -0.125 5.75 -0.125 C 5.59375 -0.125 5.5625 -0.21875 5.5625 -0.375 C 5.5625 -0.53125 5.609375 -0.625 5.734375 -0.9375 C 5.8125 -1.15625 6.09375 -1.890625 6.09375 -2.28125 C 6.09375 -2.390625 6.09375 -2.6875 5.84375 -2.890625 C 5.71875 -2.96875 5.515625 -3.078125 5.1875 -3.078125 C 4.5625 -3.078125 4.1875 -2.65625 3.953125 -2.375 C 3.90625 -2.96875 3.40625 -3.078125 3.046875 -3.078125 C 2.46875 -3.078125 2.078125 -2.71875 1.875 -2.4375 C 1.828125 -2.921875 1.421875 -3.078125 1.125 -3.078125 C 0.828125 -3.078125 0.671875 -2.859375 0.578125 -2.703125 C 0.421875 -2.4375 0.328125 -2.046875 0.328125 -2 C 0.328125 -1.921875 0.421875 -1.921875 0.453125 -1.921875 C 0.546875 -1.921875 0.546875 -1.9375 0.59375 -2.125 C 0.703125 -2.53125 0.84375 -2.875 1.109375 -2.875 C 1.296875 -2.875 1.34375 -2.71875 1.34375 -2.53125 C 1.34375 -2.40625 1.28125 -2.140625 1.21875 -1.953125 C 1.171875 -1.765625 1.109375 -1.484375 1.078125 -1.328125 L 0.84375 -0.4375 C 0.828125 -0.34375 0.78125 -0.171875 0.78125 -0.15625 C 0.78125 0 0.90625 0.0625 1.015625 0.0625 C 1.140625 0.0625 1.25 -0.015625 1.296875 -0.078125 C 1.328125 -0.140625 1.375 -0.375 1.421875 -0.515625 C 1.453125 -0.640625 1.53125 -0.96875 1.5625 -1.140625 C 1.609375 -1.296875 1.65625 -1.453125 1.6875 -1.609375 C 1.765625 -1.890625 1.78125 -1.953125 1.984375 -2.234375 C 2.171875 -2.515625 2.5 -2.875 3.03125 -2.875 C 3.421875 -2.875 3.4375 -2.515625 3.4375 -2.390625 C 3.4375 -2.21875 3.421875 -2.125 3.3125 -1.734375 Z M 3.03125 -0.5625 "/>
</symbol>
<symbol overflow="visible" id="glyph2-2">
<path style="stroke:none;" d="M 2.265625 -4.359375 C 2.265625 -4.46875 2.171875 -4.625 1.984375 -4.625 C 1.796875 -4.625 1.59375 -4.4375 1.59375 -4.234375 C 1.59375 -4.125 1.671875 -3.96875 1.875 -3.96875 C 2.0625 -3.96875 2.265625 -4.171875 2.265625 -4.359375 Z M 0.84375 -0.8125 C 0.8125 -0.71875 0.78125 -0.640625 0.78125 -0.515625 C 0.78125 -0.1875 1.046875 0.0625 1.4375 0.0625 C 2.125 0.0625 2.4375 -0.890625 2.4375 -1 C 2.4375 -1.09375 2.34375 -1.09375 2.328125 -1.09375 C 2.234375 -1.09375 2.21875 -1.046875 2.1875 -0.96875 C 2.03125 -0.40625 1.734375 -0.125 1.453125 -0.125 C 1.3125 -0.125 1.28125 -0.21875 1.28125 -0.375 C 1.28125 -0.53125 1.328125 -0.65625 1.390625 -0.8125 C 1.46875 -1 1.546875 -1.1875 1.609375 -1.375 C 1.671875 -1.546875 1.9375 -2.171875 1.953125 -2.265625 C 1.984375 -2.328125 2 -2.40625 2 -2.484375 C 2 -2.8125 1.71875 -3.078125 1.34375 -3.078125 C 0.640625 -3.078125 0.328125 -2.125 0.328125 -2 C 0.328125 -1.921875 0.421875 -1.921875 0.453125 -1.921875 C 0.546875 -1.921875 0.546875 -1.953125 0.578125 -2.03125 C 0.75 -2.625 1.0625 -2.875 1.3125 -2.875 C 1.421875 -2.875 1.484375 -2.828125 1.484375 -2.640625 C 1.484375 -2.46875 1.453125 -2.375 1.28125 -1.9375 Z M 0.84375 -0.8125 "/>
</symbol>
<symbol overflow="visible" id="glyph2-3">
<path style="stroke:none;" d="M 2.9375 -2.65625 C 2.796875 -2.890625 2.5625 -3.078125 2.21875 -3.078125 C 1.328125 -3.078125 0.421875 -2.09375 0.421875 -1.09375 C 0.421875 -0.40625 0.875 0.0625 1.484375 0.0625 C 1.859375 0.0625 2.1875 -0.140625 2.46875 -0.421875 C 2.59375 0 3 0.0625 3.1875 0.0625 C 3.4375 0.0625 3.609375 -0.078125 3.734375 -0.296875 C 3.890625 -0.578125 3.984375 -0.96875 3.984375 -1 C 3.984375 -1.09375 3.890625 -1.09375 3.875 -1.09375 C 3.765625 -1.09375 3.765625 -1.0625 3.71875 -0.875 C 3.625 -0.53125 3.5 -0.125 3.203125 -0.125 C 3.03125 -0.125 2.96875 -0.28125 2.96875 -0.46875 C 2.96875 -0.578125 3.03125 -0.84375 3.078125 -1.015625 C 3.125 -1.203125 3.203125 -1.484375 3.234375 -1.640625 L 3.375 -2.171875 C 3.421875 -2.359375 3.5 -2.6875 3.5 -2.71875 C 3.5 -2.875 3.375 -2.9375 3.265625 -2.9375 C 3.140625 -2.9375 2.984375 -2.859375 2.9375 -2.65625 Z M 2.5 -0.875 C 2.453125 -0.671875 2.296875 -0.53125 2.140625 -0.40625 C 2.078125 -0.34375 1.796875 -0.125 1.5 -0.125 C 1.234375 -0.125 0.984375 -0.3125 0.984375 -0.796875 C 0.984375 -1.171875 1.1875 -1.9375 1.359375 -2.21875 C 1.671875 -2.78125 2.03125 -2.875 2.21875 -2.875 C 2.703125 -2.875 2.84375 -2.34375 2.84375 -2.265625 C 2.84375 -2.25 2.828125 -2.1875 2.828125 -2.171875 Z M 2.5 -0.875 "/>
</symbol>
<symbol overflow="visible" id="glyph2-4">
<path style="stroke:none;" d="M 3 -2.625 C 2.828125 -2.578125 2.703125 -2.4375 2.703125 -2.296875 C 2.703125 -2.125 2.84375 -2.0625 2.9375 -2.0625 C 3.015625 -2.0625 3.28125 -2.109375 3.28125 -2.46875 C 3.28125 -2.921875 2.78125 -3.078125 2.34375 -3.078125 C 1.265625 -3.078125 1.0625 -2.265625 1.0625 -2.0625 C 1.0625 -1.796875 1.21875 -1.625 1.3125 -1.546875 C 1.484375 -1.40625 1.609375 -1.375 2.09375 -1.296875 C 2.25 -1.265625 2.6875 -1.1875 2.6875 -0.84375 C 2.6875 -0.71875 2.609375 -0.453125 2.328125 -0.28125 C 2.046875 -0.125 1.703125 -0.125 1.625 -0.125 C 1.34375 -0.125 0.953125 -0.1875 0.78125 -0.421875 C 1.015625 -0.453125 1.171875 -0.625 1.171875 -0.8125 C 1.171875 -0.984375 1.046875 -1.078125 0.90625 -1.078125 C 0.703125 -1.078125 0.5 -0.90625 0.5 -0.609375 C 0.5 -0.1875 0.9375 0.0625 1.609375 0.0625 C 2.90625 0.0625 3.140625 -0.8125 3.140625 -1.078125 C 3.140625 -1.71875 2.4375 -1.84375 2.171875 -1.890625 C 2.109375 -1.90625 1.9375 -1.9375 1.890625 -1.953125 C 1.640625 -2 1.515625 -2.140625 1.515625 -2.296875 C 1.515625 -2.453125 1.640625 -2.640625 1.796875 -2.75 C 1.984375 -2.859375 2.21875 -2.875 2.34375 -2.875 C 2.484375 -2.875 2.84375 -2.859375 3 -2.625 Z M 3 -2.625 "/>
</symbol>
<symbol overflow="visible" id="glyph2-5">
<path style="stroke:none;" d="M 1.3125 -0.546875 C 1.265625 -0.3125 1.25 -0.25 0.703125 -0.25 C 0.578125 -0.25 0.5 -0.25 0.5 -0.09375 C 0.5 0 0.578125 0 0.703125 0 L 3.1875 0 C 4.734375 0 6.21875 -1.421875 6.21875 -2.9375 C 6.21875 -3.953125 5.515625 -4.765625 4.390625 -4.765625 L 1.84375 -4.765625 C 1.703125 -4.765625 1.625 -4.765625 1.625 -4.609375 C 1.625 -4.515625 1.703125 -4.515625 1.859375 -4.515625 C 1.96875 -4.515625 2 -4.515625 2.125 -4.5 C 2.265625 -4.484375 2.265625 -4.46875 2.265625 -4.390625 C 2.265625 -4.390625 2.265625 -4.34375 2.25 -4.25 Z M 2.875 -4.265625 C 2.9375 -4.484375 2.9375 -4.515625 3.234375 -4.515625 L 4.125 -4.515625 C 4.90625 -4.515625 5.5625 -4.125 5.5625 -3.171875 C 5.5625 -3.015625 5.484375 -1.8125 4.796875 -1.015625 C 4.515625 -0.703125 3.921875 -0.25 3.0625 -0.25 L 2.125 -0.25 C 1.90625 -0.25 1.890625 -0.265625 1.890625 -0.328125 C 1.890625 -0.328125 1.890625 -0.359375 1.921875 -0.46875 Z M 2.875 -4.265625 "/>
</symbol>
<symbol overflow="visible" id="glyph2-6">
<path style="stroke:none;" d="M 3.984375 -4.625 C 3.984375 -4.640625 4 -4.734375 4 -4.734375 C 4 -4.78125 3.984375 -4.84375 3.890625 -4.84375 C 3.75 -4.84375 3.171875 -4.78125 3 -4.765625 C 2.953125 -4.765625 2.84375 -4.75 2.84375 -4.609375 C 2.84375 -4.515625 2.953125 -4.515625 3.03125 -4.515625 C 3.359375 -4.515625 3.359375 -4.453125 3.359375 -4.40625 C 3.359375 -4.359375 3.359375 -4.3125 3.34375 -4.25 L 2.9375 -2.65625 C 2.796875 -2.890625 2.5625 -3.078125 2.21875 -3.078125 C 1.328125 -3.078125 0.421875 -2.09375 0.421875 -1.09375 C 0.421875 -0.40625 0.875 0.0625 1.484375 0.0625 C 1.859375 0.0625 2.1875 -0.140625 2.46875 -0.421875 C 2.59375 0 3 0.0625 3.1875 0.0625 C 3.4375 0.0625 3.609375 -0.078125 3.734375 -0.296875 C 3.890625 -0.578125 3.984375 -0.96875 3.984375 -1 C 3.984375 -1.09375 3.890625 -1.09375 3.875 -1.09375 C 3.765625 -1.09375 3.765625 -1.0625 3.71875 -0.875 C 3.625 -0.53125 3.5 -0.125 3.203125 -0.125 C 3.03125 -0.125 2.96875 -0.28125 2.96875 -0.46875 C 2.96875 -0.59375 2.984375 -0.65625 3.015625 -0.75 Z M 2.5 -0.875 C 2.453125 -0.671875 2.296875 -0.53125 2.140625 -0.40625 C 2.078125 -0.34375 1.796875 -0.125 1.5 -0.125 C 1.234375 -0.125 0.984375 -0.3125 0.984375 -0.796875 C 0.984375 -1.171875 1.1875 -1.9375 1.359375 -2.21875 C 1.671875 -2.78125 2.03125 -2.875 2.21875 -2.875 C 2.703125 -2.875 2.84375 -2.34375 2.84375 -2.265625 C 2.84375 -2.25 2.828125 -2.1875 2.828125 -2.171875 Z M 2.5 -0.875 "/>
</symbol>
<symbol overflow="visible" id="glyph3-0">
<path style="stroke:none;" d=""/>
</symbol>
<symbol overflow="visible" id="glyph3-1">
<path style="stroke:none;" d="M 4.75 -1.828125 C 4.8125 -1.9375 4.8125 -1.96875 4.8125 -2 C 4.8125 -2.046875 4.796875 -2.0625 4.75 -2.125 L 2.84375 -4.859375 C 2.796875 -4.9375 2.765625 -4.96875 2.6875 -4.96875 C 2.59375 -4.96875 2.5625 -4.9375 2.515625 -4.859375 L 0.609375 -2.140625 C 0.546875 -2.046875 0.546875 -2.015625 0.546875 -2 C 0.546875 -1.9375 0.5625 -1.921875 0.609375 -1.84375 L 2.5 0.859375 C 2.578125 0.96875 2.59375 1 2.6875 1 C 2.765625 1 2.8125 0.9375 2.859375 0.859375 Z M 0.921875 -2 L 2.671875 -4.515625 L 4.4375 -2 L 2.6875 0.53125 Z M 0.921875 -2 "/>
</symbol>
</g>
</defs>
<g id="surface1">
<g style="fill:rgb(0%,0%,0%);fill-opacity:1;">
  <use xlink:href="#glyph0-1" x="41.343" y="131.181"/>
  <use xlink:href="#glyph0-2" x="45.743468" y="131.181"/>
  <use xlink:href="#glyph0-3" x="47.998795" y="131.181"/>
  <use xlink:href="#glyph0-4" x="51.970374" y="131.181"/>
  <use xlink:href="#glyph0-2" x="56.370842" y="131.181"/>
  <use xlink:href="#glyph0-5" x="58.626169" y="131.181"/>
  <use xlink:href="#glyph0-6" x="63.136822" y="131.181"/>
  <use xlink:href="#glyph0-7" x="66.678815" y="131.181"/>
</g>
<g style="fill:rgb(0%,0%,0%);fill-opacity:1;">
  <use xlink:href="#glyph0-8" x="142.671" y="131.82"/>
</g>
<g style="fill:rgb(0%,0%,0%);fill-opacity:1;">
  <use xlink:href="#glyph0-9" x="147.910416" y="131.82"/>
  <use xlink:href="#glyph0-2" x="151.881995" y="131.82"/>
  <use xlink:href="#glyph0-10" x="154.137322" y="131.82"/>
  <use xlink:href="#glyph0-6" x="157.679315" y="131.82"/>
</g>
<g style="fill:rgb(0%,0%,0%);fill-opacity:1;">
  <use xlink:href="#glyph0-11" x="82.091" y="184.189"/>
  <use xlink:href="#glyph0-12" x="84.969087" y="184.189"/>
  <use xlink:href="#glyph0-13" x="88.082192" y="184.189"/>
  <use xlink:href="#glyph0-14" x="93.963197" y="184.189"/>
</g>
<g style="fill:rgb(0%,0%,0%);fill-opacity:1;">
  <use xlink:href="#glyph1-1" x="115.439" y="186.741"/>
</g>
<g style="fill:rgb(0%,0%,0%);fill-opacity:1;">
  <use xlink:href="#glyph0-1" x="115.73" y="184.143"/>
</g>
<g style="fill:rgb(0%,0%,0%);fill-opacity:1;">
  <use xlink:href="#glyph2-1" x="73.293" y="143.695"/>
</g>
<g style="fill:rgb(0%,0%,0%);fill-opacity:1;">
  <use xlink:href="#glyph2-2" x="126.837" y="143.937"/>
</g>
<g style="fill:rgb(0%,0%,0%);fill-opacity:1;">
  <use xlink:href="#glyph0-12" x="129.65581" y="143.937"/>
</g>
<g style="fill:rgb(0%,0%,0%);fill-opacity:1;">
  <use xlink:href="#glyph2-3" x="132.768914" y="143.937"/>
</g>
<g style="fill:rgb(0%,0%,0%);fill-opacity:1;">
  <use xlink:href="#glyph0-14" x="137.090578" y="143.937"/>
</g>
<path style="fill:none;stroke-width:0.79701;stroke-linecap:butt;stroke-linejoin:miter;stroke:rgb(0%,0%,0%);stroke-opacity:1;stroke-miterlimit:10;" d="M -3.737 55.788094 C 20.270812 79.799813 64.766906 79.799813 90.29425 54.272469 " transform="matrix(1,0,0,-1,61.237,174.792)"/>
<path style="fill:none;stroke-width:0.79701;stroke-linecap:round;stroke-linejoin:miter;stroke:rgb(0%,0%,0%);stroke-opacity:1;stroke-miterlimit:10;" d="M 4.336585 1.946928 L -0.251366 -0.000395984 L 4.336585 -1.94772 " transform="matrix(-0.7071,0.7071,0.7071,0.7071,57.49832,119.00224)"/>
<path style=" stroke:none;fill-rule:nonzero;fill:rgb(0%,0%,0%);fill-opacity:1;" d="M 153.363281 122.351563 L 151.898438 117.953125 L 151.53125 120.519531 L 148.96875 120.886719 "/>
<path style="fill:none;stroke-width:0.79701;stroke-linecap:round;stroke-linejoin:miter;stroke:rgb(0%,0%,0%);stroke-opacity:1;stroke-miterlimit:10;" d="M -8.170594 54.057625 L -5.498719 51.334969 " transform="matrix(1,0,0,-1,61.237,174.792)"/>
<path style="fill:none;stroke-width:0.79701;stroke-linecap:butt;stroke-linejoin:miter;stroke:rgb(0%,0%,0%);stroke-opacity:1;stroke-miterlimit:10;" d="M 43.938781 73.702156 L 42.763 73.702156 " transform="matrix(1,0,0,-1,61.237,174.792)"/>
<path style=" stroke:none;fill-rule:nonzero;fill:rgb(0%,0%,0%);fill-opacity:1;" d="M 106.59375 101.089844 L 102.449219 99.019531 L 104 101.089844 L 102.449219 103.164063 "/>
<path style="fill:none;stroke-width:0.79701;stroke-linecap:butt;stroke-linejoin:miter;stroke:rgb(0%,0%,0%);stroke-opacity:1;stroke-miterlimit:10;" d="M 16.723937 63.780281 L 27.884094 2.549813 " transform="matrix(1,0,0,-1,61.237,174.792)"/>
<path style=" stroke:none;fill-rule:nonzero;fill:rgb(0%,0%,0%);fill-opacity:1;" d="M 89.582031 174.792969 L 90.878906 170.34375 L 89.121094 172.242188 L 86.800781 171.085938 "/>
<path style="fill:none;stroke-width:0.79701;stroke-linecap:butt;stroke-linejoin:miter;stroke:rgb(0%,0%,0%);stroke-opacity:1;stroke-miterlimit:10;" d="M 67.180969 63.780281 L 57.462219 4.670906 " transform="matrix(1,0,0,-1,61.237,174.792)"/>
<path style="fill:none;stroke-width:0.79701;stroke-linecap:round;stroke-linejoin:miter;stroke:rgb(0%,0%,0%);stroke-opacity:1;stroke-miterlimit:10;" d="M 4.336795 1.944756 L -0.248411 -0.000758524 L 4.335337 -1.947086 " transform="matrix(-0.16223,0.9867,0.9867,0.16223,118.69873,170.12023)"/>
<path style="fill:none;stroke-width:0.79701;stroke-linecap:round;stroke-linejoin:miter;stroke:rgb(0%,0%,0%);stroke-opacity:1;stroke-miterlimit:10;" d="M 54.837219 0.709969 L 58.673156 0.0810625 " transform="matrix(1,0,0,-1,61.237,174.792)"/>
<path style="fill:none;stroke-width:0.79701;stroke-linecap:butt;stroke-linejoin:miter;stroke:rgb(0%,0%,0%);stroke-opacity:1;stroke-miterlimit:10;" d="M 64.302063 81.331063 C 59.559875 90.643563 43.001281 96.022469 29.470031 89.131844 C 24.298156 86.495125 20.091125 82.288094 18.630187 79.420906 " transform="matrix(1,0,0,-1,61.237,174.792)"/>
<path style="fill:none;stroke-width:0.79701;stroke-linecap:round;stroke-linejoin:miter;stroke:rgb(0%,0%,0%);stroke-opacity:1;stroke-miterlimit:10;" d="M 4.337616 1.945012 L -0.249087 -0.00128882 L 4.336027 -1.94732 " transform="matrix(0.45398,0.89099,0.89099,-0.45398,125.54001,93.45963)"/>
<path style=" stroke:none;fill-rule:nonzero;fill:rgb(0%,0%,0%);fill-opacity:1;" d="M 78.691406 97.679688 L 82.417969 94.925781 L 79.867188 95.371094 L 78.726563 93.042969 "/>
<path style="fill-rule:nonzero;fill:rgb(100%,100%,100%);fill-opacity:1;stroke-width:0.79701;stroke-linecap:butt;stroke-linejoin:miter;stroke:rgb(0%,0%,0%);stroke-opacity:1;stroke-miterlimit:10;" d="M 27.067687 68.030281 C 27.067687 72.803719 23.2005 76.674813 18.427062 76.674813 C 13.653625 76.674813 9.782531 72.803719 9.782531 68.030281 C 9.782531 63.26075 13.653625 59.389656 18.427062 59.389656 C 23.2005 59.389656 27.067687 63.26075 27.067687 68.030281 Z M 27.067687 68.030281 " transform="matrix(1,0,0,-1,61.237,174.792)"/>
<g style="fill:rgb(0%,0%,0%);fill-opacity:1;">
  <use xlink:href="#glyph2-4" x="71.728" y="108.504"/>
</g>
<g style="fill:rgb(0%,0%,0%);fill-opacity:1;">
  <use xlink:href="#glyph0-12" x="75.488273" y="108.504"/>
  <use xlink:href="#glyph0-13" x="78.601377" y="108.504"/>
  <use xlink:href="#glyph0-14" x="84.482383" y="108.504"/>
</g>
<path style="fill-rule:nonzero;fill:rgb(100%,100%,100%);fill-opacity:1;stroke-width:0.79701;stroke-linecap:butt;stroke-linejoin:miter;stroke:rgb(0%,0%,0%);stroke-opacity:1;stroke-miterlimit:10;" d="M 75.001281 68.030281 C 75.001281 72.663094 71.247375 76.417 66.614563 76.417 C 61.985656 76.417 58.23175 72.663094 58.23175 68.030281 C 58.23175 63.401375 61.985656 59.647469 66.614563 59.647469 C 71.247375 59.647469 75.001281 63.401375 75.001281 68.030281 Z M 75.001281 68.030281 " transform="matrix(1,0,0,-1,61.237,174.792)"/>
<g style="fill:rgb(100%,100%,100%);fill-opacity:1;">
  <use xlink:href="#glyph0-15" x="120.22" y="108.504"/>
  <use xlink:href="#glyph0-12" x="123.376342" y="108.504"/>
  <use xlink:href="#glyph0-13" x="126.489446" y="108.504"/>
  <use xlink:href="#glyph0-14" x="132.370452" y="108.504"/>
</g>
<g style="fill:rgb(0%,0%,0%);fill-opacity:1;">
  <use xlink:href="#glyph0-13" x="124.911" y="109.143"/>
</g>
<path style="fill:none;stroke-width:0.79701;stroke-linecap:butt;stroke-linejoin:miter;stroke:rgb(0%,0%,0%);stroke-opacity:1;stroke-miterlimit:10;" d="M 52.442687 32.600594 L 32.598937 32.600594 " transform="matrix(1,0,0,-1,61.237,174.792)"/>
<path style=" stroke:none;fill-rule:nonzero;fill:rgb(0%,0%,0%);fill-opacity:1;" d="M 102.070313 142.191406 L 106.214844 144.265625 L 104.660156 142.191406 L 106.214844 140.121094 "/>
<path style="fill:none;stroke-width:0.79701;stroke-linecap:butt;stroke-linejoin:miter;stroke:rgb(0%,0%,0%);stroke-opacity:1;stroke-miterlimit:10;" d="M 32.598937 32.600594 C 21.161437 32.600594 22.255187 48.13575 21.485656 56.94825 " transform="matrix(1,0,0,-1,61.237,174.792)"/>
<path style=" stroke:none;fill-rule:nonzero;fill:rgb(0%,0%,0%);fill-opacity:1;" d="M 82.496094 115.261719 L 80.792969 119.574219 L 82.722656 117.84375 L 84.921875 119.210938 "/>
<path style="fill:none;stroke-width:0.79701;stroke-linecap:butt;stroke-linejoin:miter;stroke:rgb(0%,0%,0%);stroke-opacity:1;stroke-miterlimit:10;" d="M 52.442687 32.600594 C 63.798156 34.600594 61.524719 48.475594 62.938781 55.124031 " transform="matrix(1,0,0,-1,61.237,174.792)"/>
<path style="fill:none;stroke-width:0.79701;stroke-linecap:round;stroke-linejoin:miter;stroke:rgb(0%,0%,0%);stroke-opacity:1;stroke-miterlimit:10;" d="M 4.3348 1.946725 L -0.247883 0.00224032 L 4.335697 -1.946835 " transform="matrix(0.2079,-0.97813,-0.97813,-0.2079,124.17482,119.66816)"/>
<path style="fill:none;stroke-width:0.79701;stroke-linecap:butt;stroke-linejoin:miter;stroke:rgb(0%,0%,0%);stroke-opacity:1;stroke-miterlimit:10;" d="M 61.930969 59.811531 L 61.8255 60.377938 " transform="matrix(1,0,0,-1,61.237,174.792)"/>
<path style="fill:none;stroke-width:0.79701;stroke-linecap:butt;stroke-linejoin:miter;stroke:rgb(0%,0%,0%);stroke-opacity:1;stroke-miterlimit:10;" d="M 32.598937 32.600594 C 28.407531 32.600594 23.891906 31.1045 23.528625 26.928719 " transform="matrix(1,0,0,-1,61.237,174.792)"/>
<path style="fill:none;stroke-width:0.79701;stroke-linecap:butt;stroke-linejoin:miter;stroke:rgb(0%,0%,0%);stroke-opacity:1;stroke-miterlimit:10;" d="M 52.442687 32.600594 C 56.536437 32.600594 60.872375 31.01075 61.227844 26.928719 " transform="matrix(1,0,0,-1,61.237,174.792)"/>
<path style="fill:none;stroke-width:0.79701;stroke-linecap:butt;stroke-linejoin:miter;stroke:rgb(0%,0%,0%);stroke-opacity:1;stroke-miterlimit:10;" d="M 5.66925 127.561531 L 14.286437 79.084969 " transform="matrix(1,0,0,-1,61.237,174.792)"/>
<path style=" stroke:none;fill-rule:nonzero;fill:rgb(0%,0%,0%);fill-opacity:1;" d="M 75.976563 98.253906 L 77.292969 93.8125 L 75.523438 95.707031 L 73.210938 94.539063 "/>
<path style="fill:none;stroke-width:0.79701;stroke-linecap:butt;stroke-linejoin:miter;stroke:rgb(0%,0%,0%);stroke-opacity:1;stroke-miterlimit:10;" d="M 77.954406 127.561531 L 70.227844 81.206063 " transform="matrix(1,0,0,-1,61.237,174.792)"/>
<path style="fill:none;stroke-width:0.79701;stroke-linecap:round;stroke-linejoin:miter;stroke:rgb(0%,0%,0%);stroke-opacity:1;stroke-miterlimit:10;" d="M 4.337291 1.946528 L -0.248819 -0.00192092 L 4.33661 -1.946607 " transform="matrix(-0.16438,0.98634,0.98634,0.16438,131.4649,93.58558)"/>
<path style="fill:none;stroke-width:0.79701;stroke-linecap:round;stroke-linejoin:miter;stroke:rgb(0%,0%,0%);stroke-opacity:1;stroke-miterlimit:10;" d="M 71.454406 76.538094 L 71.622375 75.686531 " transform="matrix(1,0,0,-1,61.237,174.792)"/>
<path style="fill:none;stroke-width:0.79701;stroke-linecap:butt;stroke-linejoin:miter;stroke:rgb(0%,0%,0%);stroke-opacity:1;stroke-miterlimit:10;" d="M -17.912781 109.647469 C 13.915344 141.475594 71.126281 141.475594 104.470031 108.131844 " transform="matrix(1,0,0,-1,61.237,174.792)"/>
<path style="fill:none;stroke-width:0.79701;stroke-linecap:round;stroke-linejoin:miter;stroke:rgb(0%,0%,0%);stroke-opacity:1;stroke-miterlimit:10;" d="M 4.335065 1.947593 L -0.247362 0.000268703 L 4.335065 -1.947056 " transform="matrix(-0.7071,0.7071,0.7071,0.7071,43.3249,65.14347)"/>
<path style=" stroke:none;fill-rule:nonzero;fill:rgb(0%,0%,0%);fill-opacity:1;" d="M 167.539063 68.492188 L 166.070313 64.09375 L 165.707031 66.660156 L 163.140625 67.027344 "/>
<path style="fill:none;stroke-width:0.79701;stroke-linecap:round;stroke-linejoin:miter;stroke:rgb(0%,0%,0%);stroke-opacity:1;stroke-miterlimit:10;" d="M -22.342469 107.917 L -19.6745 105.194344 " transform="matrix(1,0,0,-1,61.237,174.792)"/>
<path style="fill:none;stroke-width:0.79701;stroke-linecap:butt;stroke-linejoin:miter;stroke:rgb(0%,0%,0%);stroke-opacity:1;stroke-miterlimit:10;" d="M 43.938781 133.2295 L 42.763 133.2295 " transform="matrix(1,0,0,-1,61.237,174.792)"/>
<path style=" stroke:none;fill-rule:nonzero;fill:rgb(0%,0%,0%);fill-opacity:1;" d="M 106.59375 41.5625 L 102.449219 39.488281 L 104 41.5625 L 102.449219 43.632813 "/>
<path style="fill-rule:nonzero;fill:rgb(100%,100%,100%);fill-opacity:1;stroke-width:0.79701;stroke-linecap:butt;stroke-linejoin:miter;stroke:rgb(0%,0%,0%);stroke-opacity:1;stroke-miterlimit:10;" d="M 17.891906 127.561531 C 17.891906 134.311531 12.41925 139.780281 5.66925 139.780281 C -1.08075 139.780281 -6.553406 134.311531 -6.553406 127.561531 C -6.553406 120.811531 -1.08075 115.338875 5.66925 115.338875 C 12.41925 115.338875 17.891906 120.811531 17.891906 127.561531 Z M 17.891906 127.561531 " transform="matrix(1,0,0,-1,61.237,174.792)"/>
<g style="fill:rgb(100%,100%,100%);fill-opacity:1;">
  <use xlink:href="#glyph0-12" x="55.544" y="50.043"/>
</g>
<g style="fill:rgb(100%,100%,100%);fill-opacity:1;">
  <use xlink:href="#glyph1-1" x="58.367" y="52.642"/>
</g>
<g style="fill:rgb(100%,100%,100%);fill-opacity:1;">
  <use xlink:href="#glyph0-1" x="58.658" y="50.043"/>
</g>
<g style="fill:rgb(100%,100%,100%);fill-opacity:1;">
  <use xlink:href="#glyph3-1" x="63.058468" y="50.043"/>
</g>
<g style="fill:rgb(100%,100%,100%);fill-opacity:1;">
  <use xlink:href="#glyph2-5" x="68.426899" y="50.043"/>
</g>
<g style="fill:rgb(100%,100%,100%);fill-opacity:1;">
  <use xlink:href="#glyph0-14" x="75.157313" y="50.043"/>
</g>
<g style="fill:rgb(0%,0%,0%);fill-opacity:1;">
  <use xlink:href="#glyph0-1" x="58.652" y="50.043"/>
  <use xlink:href="#glyph0-12" x="63.052468" y="50.043"/>
</g>
<g style="fill:rgb(0%,0%,0%);fill-opacity:1;">
  <use xlink:href="#glyph1-1" x="66.616" y="52.642"/>
</g>
<g style="fill:rgb(0%,0%,0%);fill-opacity:1;">
  <use xlink:href="#glyph0-13" x="66.166" y="50.043"/>
  <use xlink:href="#glyph0-14" x="72.047006" y="50.043"/>
</g>
<path style="fill-rule:nonzero;fill:rgb(100%,100%,100%);fill-opacity:1;stroke-width:0.79701;stroke-linecap:butt;stroke-linejoin:miter;stroke:rgb(0%,0%,0%);stroke-opacity:1;stroke-miterlimit:10;" d="M 90.177063 127.561531 C 90.177063 134.311531 84.704406 139.780281 77.954406 139.780281 C 71.204406 139.780281 65.73175 134.311531 65.73175 127.561531 C 65.73175 120.811531 71.204406 115.338875 77.954406 115.338875 C 84.704406 115.338875 90.177063 120.811531 90.177063 127.561531 Z M 90.177063 127.561531 " transform="matrix(1,0,0,-1,61.237,174.792)"/>
<g style="fill:rgb(0%,0%,0%);fill-opacity:1;">
  <use xlink:href="#glyph0-12" x="127.828" y="50.043"/>
</g>
<g style="fill:rgb(0%,0%,0%);fill-opacity:1;">
  <use xlink:href="#glyph1-1" x="130.651" y="52.642"/>
</g>
<g style="fill:rgb(0%,0%,0%);fill-opacity:1;">
  <use xlink:href="#glyph0-1" x="130.941" y="50.043"/>
</g>
<g style="fill:rgb(0%,0%,0%);fill-opacity:1;">
  <use xlink:href="#glyph3-1" x="135.341468" y="50.043"/>
</g>
<g style="fill:rgb(0%,0%,0%);fill-opacity:1;">
  <use xlink:href="#glyph2-5" x="140.709899" y="50.043"/>
</g>
<g style="fill:rgb(0%,0%,0%);fill-opacity:1;">
  <use xlink:href="#glyph0-14" x="147.440313" y="50.043"/>
</g>
<path style="fill:none;stroke-width:0.79701;stroke-linecap:butt;stroke-linejoin:miter;stroke:rgb(0%,0%,0%);stroke-opacity:1;stroke-miterlimit:10;" d="M 19.841125 99.213875 L 65.196594 99.213875 " transform="matrix(1,0,0,-1,61.237,174.792)"/>
<path style="fill:none;stroke-width:0.79701;stroke-linecap:butt;stroke-linejoin:miter;stroke:rgb(0%,0%,0%);stroke-opacity:1;stroke-miterlimit:10;" d="M 19.841125 99.213875 C 12.548156 99.213875 11.407531 108.249031 10.997375 112.932625 " transform="matrix(1,0,0,-1,61.237,174.792)"/>
<path style=" stroke:none;fill-rule:nonzero;fill:rgb(0%,0%,0%);fill-opacity:1;" d="M 72.007813 59.277344 L 70.304688 63.589844 L 72.234375 61.859375 L 74.433594 63.226563 "/>
<path style="fill:none;stroke-width:0.79701;stroke-linecap:butt;stroke-linejoin:miter;stroke:rgb(0%,0%,0%);stroke-opacity:1;stroke-miterlimit:10;" d="M 65.196594 99.213875 C 72.313781 100.467781 72.446594 108.538094 72.880188 110.991219 " transform="matrix(1,0,0,-1,61.237,174.792)"/>
<path style="fill:none;stroke-width:0.79701;stroke-linecap:round;stroke-linejoin:miter;stroke:rgb(0%,0%,0%);stroke-opacity:1;stroke-miterlimit:10;" d="M 4.336409 1.946137 L -0.2507 -0.00101314 L 4.336256 -1.945067 " transform="matrix(0.17363,-0.9848,-0.9848,-0.17363,134.11675,63.79981)"/>
<path style="fill:none;stroke-width:0.79701;stroke-linecap:butt;stroke-linejoin:miter;stroke:rgb(0%,0%,0%);stroke-opacity:1;stroke-miterlimit:10;" d="M 71.704406 115.655281 L 71.516906 116.506844 " transform="matrix(1,0,0,-1,61.237,174.792)"/>
<path style="fill:none;stroke-width:0.79701;stroke-linecap:butt;stroke-linejoin:miter;stroke:rgb(0%,0%,0%);stroke-opacity:1;stroke-miterlimit:10;" d="M 19.841125 99.213875 C 15.73175 99.213875 12.407531 96.221688 12.048156 92.127938 " transform="matrix(1,0,0,-1,61.237,174.792)"/>
<path style="fill:none;stroke-width:0.79701;stroke-linecap:butt;stroke-linejoin:miter;stroke:rgb(0%,0%,0%);stroke-opacity:1;stroke-miterlimit:10;" d="M 65.196594 99.213875 C 69.036438 99.213875 71.665344 95.952156 72.001281 92.127938 " transform="matrix(1,0,0,-1,61.237,174.792)"/>
<path style="fill:none;stroke-width:0.79701;stroke-linecap:butt;stroke-linejoin:miter;stroke:rgb(0%,0%,0%);stroke-opacity:1;stroke-miterlimit:10;" d="M 76.423156 144.276375 C 64.059875 163.315438 38.602844 168.725594 19.567687 156.362313 C 13.516906 152.436531 8.602844 146.9795 6.505187 142.858406 " transform="matrix(1,0,0,-1,61.237,174.792)"/>
<path style=" stroke:none;fill-rule:nonzero;fill:rgb(0%,0%,0%);fill-opacity:1;" d="M 66.566406 34.242188 L 70.296875 31.488281 L 67.742188 31.933594 L 66.601563 29.605469 "/>
<path style="fill:none;stroke-width:0.79701;stroke-linecap:round;stroke-linejoin:miter;stroke:rgb(0%,0%,0%);stroke-opacity:1;stroke-miterlimit:10;" d="M 76.251281 144.569344 L 75.118469 140.315438 " transform="matrix(1,0,0,-1,61.237,174.792)"/>
<path style="fill:none;stroke-width:0.79701;stroke-linecap:round;stroke-linejoin:miter;stroke:rgb(0%,0%,0%);stroke-opacity:1;stroke-miterlimit:10;" d="M 76.251281 144.569344 L 79.372375 140.315438 " transform="matrix(1,0,0,-1,61.237,174.792)"/>
<path style="fill:none;stroke-width:0.79701;stroke-linecap:butt;stroke-linejoin:miter;stroke:rgb(0%,0%,0%);stroke-opacity:1;stroke-miterlimit:10;" d="M 42.235656 162.995125 L 43.411437 162.995125 " transform="matrix(1,0,0,-1,61.237,174.792)"/>
<path style=" stroke:none;fill-rule:nonzero;fill:rgb(0%,0%,0%);fill-opacity:1;" d="M 102.054688 11.796875 L 106.199219 13.871094 L 104.648438 11.796875 L 106.199219 9.726563 "/>
<g style="fill:rgb(0%,0%,0%);fill-opacity:1;">
  <use xlink:href="#glyph0-12" x="48.811" y="78.389"/>
</g>
<g style="fill:rgb(0%,0%,0%);fill-opacity:1;">
  <use xlink:href="#glyph1-1" x="51.634" y="80.988"/>
</g>
<g style="fill:rgb(0%,0%,0%);fill-opacity:1;">
  <use xlink:href="#glyph0-1" x="51.924" y="78.389"/>
</g>
<g style="fill:rgb(0%,0%,0%);fill-opacity:1;">
  <use xlink:href="#glyph3-1" x="56.324468" y="78.389"/>
</g>
<g style="fill:rgb(0%,0%,0%);fill-opacity:1;">
  <use xlink:href="#glyph2-3" x="61.692899" y="78.389"/>
</g>
<g style="fill:rgb(0%,0%,0%);fill-opacity:1;">
  <use xlink:href="#glyph0-14" x="66.014563" y="78.389"/>
</g>
<g style="fill:rgb(0%,0%,0%);fill-opacity:1;">
  <use xlink:href="#glyph2-6" x="137.683" y="78.001"/>
</g>
<g style="fill:rgb(0%,0%,0%);fill-opacity:1;">
  <use xlink:href="#glyph0-16" x="8.99" y="59.537"/>
  <use xlink:href="#glyph0-9" x="13.057818" y="59.537"/>
  <use xlink:href="#glyph0-17" x="17.029397" y="59.537"/>
  <use xlink:href="#glyph0-2" x="21.429864" y="59.537"/>
  <use xlink:href="#glyph0-15" x="23.685191" y="59.537"/>
  <use xlink:href="#glyph0-15" x="26.841533" y="59.537"/>
  <use xlink:href="#glyph0-18" x="29.997875" y="59.537"/>
  <use xlink:href="#glyph0-4" x="33.969454" y="59.537"/>
  <use xlink:href="#glyph0-10" x="38.369922" y="59.537"/>
  <use xlink:href="#glyph0-6" x="41.911915" y="59.537"/>
</g>
<g style="fill:rgb(0%,0%,0%);fill-opacity:1;">
  <use xlink:href="#glyph0-19" x="161.916" y="59.537"/>
  <use xlink:href="#glyph0-18" x="167.603134" y="59.537"/>
  <use xlink:href="#glyph0-15" x="171.574713" y="59.537"/>
  <use xlink:href="#glyph0-20" x="174.731055" y="59.537"/>
  <use xlink:href="#glyph0-7" x="177.844159" y="59.537"/>
  <use xlink:href="#glyph0-18" x="180.957264" y="59.537"/>
  <use xlink:href="#glyph0-20" x="184.928843" y="59.537"/>
  <use xlink:href="#glyph0-2" x="188.041947" y="59.537"/>
  <use xlink:href="#glyph0-9" x="190.297274" y="59.537"/>
  <use xlink:href="#glyph0-4" x="194.268853" y="59.537"/>
</g>
</g>
</svg>
